<mxfile host="app.diagrams.net" agent="Mozilla/5.0 (Windows NT 10.0; Win64; x64) AppleWebKit/537.36 (KHTML, like Gecko) Chrome/131.0.0.0 Safari/537.36 Edg/131.0.0.0" version="27.1.6">
  <diagram id="UK0V06cQLXID8fjedF-B" name="PÃ¡gina-1">
    <mxGraphModel dx="1205" dy="1845" grid="1" gridSize="10" guides="1" tooltips="1" connect="1" arrows="1" fold="1" page="1" pageScale="1" pageWidth="827" pageHeight="1169" math="0" shadow="0">
      <root>
        <mxCell id="0" />
        <mxCell id="1" parent="0" />
        <mxCell id="FceCstnc56Hv6gQ9JST0-3" value="" style="edgeStyle=orthogonalEdgeStyle;rounded=0;orthogonalLoop=1;jettySize=auto;html=1;" parent="1" source="FceCstnc56Hv6gQ9JST0-1" target="FceCstnc56Hv6gQ9JST0-2" edge="1">
          <mxGeometry relative="1" as="geometry" />
        </mxCell>
        <mxCell id="FceCstnc56Hv6gQ9JST0-1" value="" style="verticalLabelPosition=bottom;verticalAlign=top;html=1;shape=card;whiteSpace=wrap;size=20;arcSize=12;" parent="1" vertex="1">
          <mxGeometry x="350" y="-50" width="100" height="60" as="geometry" />
        </mxCell>
        <mxCell id="c8LLxXcylOmKs84HGj9v-11" value="" style="edgeStyle=orthogonalEdgeStyle;rounded=0;orthogonalLoop=1;jettySize=auto;html=1;" edge="1" parent="1" source="FceCstnc56Hv6gQ9JST0-2" target="c8LLxXcylOmKs84HGj9v-10">
          <mxGeometry relative="1" as="geometry" />
        </mxCell>
        <mxCell id="FceCstnc56Hv6gQ9JST0-2" value="&lt;div&gt;&lt;br&gt;&lt;/div&gt;&lt;div&gt;Borrar si Tiene tokes&lt;/div&gt;" style="whiteSpace=wrap;html=1;verticalAlign=top;arcSize=12;" parent="1" vertex="1">
          <mxGeometry x="340" y="40" width="120" height="60" as="geometry" />
        </mxCell>
        <mxCell id="FceCstnc56Hv6gQ9JST0-4" value="&lt;div&gt;&lt;br&gt;&lt;/div&gt;&lt;div&gt;Validar Informacion&lt;/div&gt;" style="whiteSpace=wrap;html=1;verticalAlign=top;arcSize=12;" parent="1" vertex="1">
          <mxGeometry x="340" y="260" width="120" height="60" as="geometry" />
        </mxCell>
        <mxCell id="I46a-wBt7Vs5D0EWluno-4" value="" style="edgeStyle=orthogonalEdgeStyle;rounded=0;orthogonalLoop=1;jettySize=auto;html=1;" parent="1" source="I46a-wBt7Vs5D0EWluno-1" target="I46a-wBt7Vs5D0EWluno-3" edge="1">
          <mxGeometry relative="1" as="geometry">
            <Array as="points">
              <mxPoint x="750" y="500" />
            </Array>
          </mxGeometry>
        </mxCell>
        <mxCell id="c8LLxXcylOmKs84HGj9v-20" value="" style="edgeStyle=orthogonalEdgeStyle;rounded=0;orthogonalLoop=1;jettySize=auto;html=1;" edge="1" parent="1" source="I46a-wBt7Vs5D0EWluno-1" target="c8LLxXcylOmKs84HGj9v-19">
          <mxGeometry relative="1" as="geometry" />
        </mxCell>
        <mxCell id="I46a-wBt7Vs5D0EWluno-1" value="&lt;div&gt;&lt;br&gt;&lt;/div&gt;&lt;div&gt;&lt;span style=&quot;background-color: transparent; color: light-dark(rgb(0, 0, 0), rgb(255, 255, 255));&quot;&gt;&lt;br&gt;&lt;/span&gt;&lt;/div&gt;&lt;div&gt;&lt;span style=&quot;background-color: transparent; color: light-dark(rgb(0, 0, 0), rgb(255, 255, 255));&quot;&gt;Mantener Session&lt;/span&gt;&lt;/div&gt;" style="rhombus;whiteSpace=wrap;html=1;verticalAlign=top;arcSize=12;" parent="1" vertex="1">
          <mxGeometry x="550" y="460" width="80" height="80" as="geometry" />
        </mxCell>
        <mxCell id="I46a-wBt7Vs5D0EWluno-3" value="&lt;div&gt;&lt;span style=&quot;background-color: transparent; color: light-dark(rgb(0, 0, 0), rgb(255, 255, 255));&quot;&gt;Guardar las credenciales en el dispositivo&lt;/span&gt;&lt;/div&gt;" style="whiteSpace=wrap;html=1;verticalAlign=top;arcSize=12;" parent="1" vertex="1">
          <mxGeometry x="690" y="540" width="120" height="60" as="geometry" />
        </mxCell>
        <mxCell id="I46a-wBt7Vs5D0EWluno-5" value="Credenciaoles" style="strokeWidth=2;html=1;shape=mxgraph.flowchart.database;whiteSpace=wrap;" parent="1" vertex="1">
          <mxGeometry x="700" y="640" width="100" height="60" as="geometry" />
        </mxCell>
        <mxCell id="I46a-wBt7Vs5D0EWluno-6" style="edgeStyle=orthogonalEdgeStyle;rounded=0;orthogonalLoop=1;jettySize=auto;html=1;exitX=0.5;exitY=1;exitDx=0;exitDy=0;entryX=0.5;entryY=0;entryDx=0;entryDy=0;entryPerimeter=0;" parent="1" source="I46a-wBt7Vs5D0EWluno-3" target="I46a-wBt7Vs5D0EWluno-5" edge="1">
          <mxGeometry relative="1" as="geometry" />
        </mxCell>
        <mxCell id="c8LLxXcylOmKs84HGj9v-1" value="Si" style="text;html=1;align=center;verticalAlign=middle;whiteSpace=wrap;rounded=0;" vertex="1" parent="1">
          <mxGeometry x="630" y="470" width="60" height="30" as="geometry" />
        </mxCell>
        <mxCell id="c8LLxXcylOmKs84HGj9v-13" style="edgeStyle=orthogonalEdgeStyle;rounded=0;orthogonalLoop=1;jettySize=auto;html=1;entryX=0;entryY=0.5;entryDx=0;entryDy=0;" edge="1" parent="1" source="c8LLxXcylOmKs84HGj9v-4" target="c8LLxXcylOmKs84HGj9v-10">
          <mxGeometry relative="1" as="geometry">
            <Array as="points">
              <mxPoint x="240" y="400" />
              <mxPoint x="240" y="180" />
            </Array>
          </mxGeometry>
        </mxCell>
        <mxCell id="c8LLxXcylOmKs84HGj9v-16" style="edgeStyle=orthogonalEdgeStyle;rounded=0;orthogonalLoop=1;jettySize=auto;html=1;" edge="1" parent="1" source="c8LLxXcylOmKs84HGj9v-4" target="I46a-wBt7Vs5D0EWluno-1">
          <mxGeometry relative="1" as="geometry" />
        </mxCell>
        <mxCell id="c8LLxXcylOmKs84HGj9v-4" value="Credenciales Correctas" style="strokeWidth=2;html=1;shape=mxgraph.flowchart.decision;whiteSpace=wrap;" vertex="1" parent="1">
          <mxGeometry x="350" y="350" width="100" height="100" as="geometry" />
        </mxCell>
        <mxCell id="c8LLxXcylOmKs84HGj9v-5" style="edgeStyle=orthogonalEdgeStyle;rounded=0;orthogonalLoop=1;jettySize=auto;html=1;entryX=0.5;entryY=0;entryDx=0;entryDy=0;entryPerimeter=0;" edge="1" parent="1" source="FceCstnc56Hv6gQ9JST0-4" target="c8LLxXcylOmKs84HGj9v-4">
          <mxGeometry relative="1" as="geometry" />
        </mxCell>
        <mxCell id="c8LLxXcylOmKs84HGj9v-12" value="" style="edgeStyle=orthogonalEdgeStyle;rounded=0;orthogonalLoop=1;jettySize=auto;html=1;" edge="1" parent="1" source="c8LLxXcylOmKs84HGj9v-10" target="FceCstnc56Hv6gQ9JST0-4">
          <mxGeometry relative="1" as="geometry" />
        </mxCell>
        <mxCell id="c8LLxXcylOmKs84HGj9v-10" value="&lt;div&gt;&lt;br&gt;&lt;/div&gt;&lt;div&gt;Ingreser Credenciales&lt;/div&gt;" style="whiteSpace=wrap;html=1;verticalAlign=top;arcSize=12;" vertex="1" parent="1">
          <mxGeometry x="340" y="150" width="120" height="60" as="geometry" />
        </mxCell>
        <mxCell id="c8LLxXcylOmKs84HGj9v-14" value="Si" style="text;html=1;align=center;verticalAlign=middle;whiteSpace=wrap;rounded=0;" vertex="1" parent="1">
          <mxGeometry x="450" y="370" width="60" height="30" as="geometry" />
        </mxCell>
        <mxCell id="c8LLxXcylOmKs84HGj9v-15" value="No" style="text;html=1;align=center;verticalAlign=middle;whiteSpace=wrap;rounded=0;" vertex="1" parent="1">
          <mxGeometry x="290" y="370" width="60" height="30" as="geometry" />
        </mxCell>
        <mxCell id="c8LLxXcylOmKs84HGj9v-19" value="&lt;div&gt;&lt;br&gt;&lt;/div&gt;Api Retornar&amp;nbsp;&lt;div&gt;Un RefresToken&lt;/div&gt;" style="whiteSpace=wrap;html=1;verticalAlign=top;arcSize=12;" vertex="1" parent="1">
          <mxGeometry x="530" y="590" width="120" height="60" as="geometry" />
        </mxCell>
        <mxCell id="c8LLxXcylOmKs84HGj9v-26" value="" style="edgeStyle=orthogonalEdgeStyle;rounded=0;orthogonalLoop=1;jettySize=auto;html=1;" edge="1" parent="1" source="c8LLxXcylOmKs84HGj9v-23" target="c8LLxXcylOmKs84HGj9v-25">
          <mxGeometry relative="1" as="geometry" />
        </mxCell>
        <mxCell id="c8LLxXcylOmKs84HGj9v-23" value="&lt;div&gt;&lt;br&gt;&lt;/div&gt;Guardar RefresToken" style="strokeWidth=2;html=1;shape=mxgraph.flowchart.database;whiteSpace=wrap;" vertex="1" parent="1">
          <mxGeometry x="540" y="700" width="100" height="80" as="geometry" />
        </mxCell>
        <mxCell id="c8LLxXcylOmKs84HGj9v-24" style="edgeStyle=orthogonalEdgeStyle;rounded=0;orthogonalLoop=1;jettySize=auto;html=1;entryX=0.5;entryY=0;entryDx=0;entryDy=0;entryPerimeter=0;" edge="1" parent="1" source="c8LLxXcylOmKs84HGj9v-19" target="c8LLxXcylOmKs84HGj9v-23">
          <mxGeometry relative="1" as="geometry" />
        </mxCell>
        <mxCell id="c8LLxXcylOmKs84HGj9v-25" value="Hacer una peticion&lt;div&gt;Para obtener accesToken&amp;nbsp;&lt;/div&gt;" style="whiteSpace=wrap;html=1;strokeWidth=2;" vertex="1" parent="1">
          <mxGeometry x="530" y="840" width="120" height="60" as="geometry" />
        </mxCell>
        <mxCell id="c8LLxXcylOmKs84HGj9v-29" value="&lt;div&gt;&lt;br&gt;&lt;/div&gt;Guardar AccessToken" style="strokeWidth=2;html=1;shape=mxgraph.flowchart.database;whiteSpace=wrap;" vertex="1" parent="1">
          <mxGeometry x="540" y="950" width="100" height="80" as="geometry" />
        </mxCell>
        <mxCell id="c8LLxXcylOmKs84HGj9v-30" style="edgeStyle=orthogonalEdgeStyle;rounded=0;orthogonalLoop=1;jettySize=auto;html=1;entryX=0.5;entryY=0;entryDx=0;entryDy=0;entryPerimeter=0;" edge="1" parent="1" source="c8LLxXcylOmKs84HGj9v-25" target="c8LLxXcylOmKs84HGj9v-29">
          <mxGeometry relative="1" as="geometry" />
        </mxCell>
      </root>
    </mxGraphModel>
  </diagram>
</mxfile>
